# File created by Blade
# Date/Time:  Thu Jan 22 16:16:06 2015
# Frame Rate: 120.000 fps
#------------------------------------------------------
:FULLY-SPECIFIED
:DEGREES
1072
root 3.644052 33.957008 -7.940053 26.139746 15.561035 11.309575
RightUpLeg -15.838163 -32.069189 -29.064420
RightLeg -8.088634 -0.000000 0.000000
RightFoot 0.556676 -29.137343 35.220650
RightToeBase 14.441886 -0.000000 -0.000000
LeftUpLeg -46.988192 -4.386386 9.371631
LeftLeg 17.034401 -0.000000 -0.000000
LeftFoot 0.469462 9.162298 -32.078795
LeftToeBase 10.539307 -0.000000 -0.000000
Spine 66.775127 6.953111 -18.169532
RightShoulder 14.892951 5.702480 -43.040430
RightArm 79.798410 2.345594 34.138814
RightForeArm -22.079611 -0.000000 30.216030
RightHand 10.067840 -0.000000 -16.079464
RightHandThumb1 -24.326973 -0.000000 -32.862282
LeftShoulder 6.389364 14.605144 30.840657
LeftArm 79.748869 -14.666376 -42.293551
LeftForeArm 52.751062 0.000000 20.614493
LeftHand -14.568930 -0.000000 10.359946
LeftHandThumb1 -26.253704 0.000000 33.147579
Head -15.896389 0.817555 -11.755016
1073
root 3.585226 33.984875 -7.877774 25.522712 15.468488 11.114005
RightUpLeg -15.338547 -31.634926 -29.059482
RightLeg -8.054425 -0.000000 0.000000
RightFoot 0.475775 -29.080301 35.158108
RightToeBase 14.453588 -0.000000 -0.000000
LeftUpLeg -46.115890 -4.344157 9.578386
LeftLeg 16.647484 -0.000000 -0.000000
LeftFoot 0.509286 9.330602 -32.160186
LeftToeBase 10.500526 -0.000000 -0.000000
Spine 66.342995 6.942541 -18.224961
RightShoulder 15.053642 5.690899 -42.724964
RightArm 79.773702 1.569904 34.626340
RightForeArm -21.632027 -0.000000 30.475823
RightHand 10.153482 -0.000000 -15.809915
RightHandThumb1 -24.326973 -0.000000 -32.862282
LeftShoulder 6.183883 14.905701 30.723212
LeftArm 79.777473 -13.982155 -42.418513
LeftForeArm 52.984478 0.000000 20.858699
LeftHand -14.538154 -0.000000 10.552639
LeftHandThumb1 -26.253704 0.000000 33.147579
Head -16.185511 0.735273 -11.277007
1074
root 3.525863 34.010723 -7.818443 24.937059 15.341110 10.905786
RightUpLeg -14.894957 -31.165365 -29.031190
RightLeg -8.035742 -0.000000 0.000000
RightFoot 0.380858 -29.049834 35.121960
RightToeBase 14.455028 -0.000000 -0.000000
LeftUpLeg -45.277159 -4.137770 9.694147
LeftLeg 16.272552 -0.000000 -0.000000
LeftFoot 0.651161 9.358069 -32.113592
LeftToeBase 10.408026 -0.000000 -0.000000
Spine 65.842672 6.975327 -18.161339
RightShoulder 15.146081 5.594779 -42.374936
RightArm 79.729076 0.771516 35.104661
RightForeArm -21.502995 -0.000000 30.688932
RightHand 10.190121 0.000000 -15.630142
RightHandThumb1 -24.326973 -0.000000 -32.862282
LeftShoulder 6.150458 14.907635 30.632313
LeftArm 79.603382 -13.155948 -42.641802
LeftForeArm 52.982748 -0.000000 21.109053
LeftHand -14.173961 -0.000000 10.482719
LeftHandThumb1 -26.253704 0.000000 33.147579
Head -16.348850 0.543930 -10.859873
1075
root 3.478146 34.034066 -7.766727 24.423715 15.307302 10.776719
RightUpLeg -14.435552 -30.868721 -29.049956
RightLeg -8.010217 -0.000000 0.000000
RightFoot 0.336163 -28.976808 35.055245
RightToeBase 14.404879 -0.000000 -0.000000
LeftUpLeg -44.526012 -4.181274 9.865794
LeftLeg 15.884126 -0.000000 -0.000000
LeftFoot 0.707934 9.552488 -32.166782
LeftToeBase 10.376736 -0.000000 -0.000000
Spine 65.366107 6.839990 -18.113966
RightShoulder 15.137461 5.483622 -42.038922
RightArm 79.767664 -0.069453 35.465154
RightForeArm -21.320663 -0.000000 30.841589
RightHand 10.254012 -0.000000 -15.827067
RightHandThumb1 -24.326973 -0.000000 -32.862282
LeftShoulder 6.027072 15.043102 30.492128
LeftArm 79.539746 -12.367362 -42.770187
LeftForeArm 53.099514 -0.000000 21.422149
LeftHand -14.166345 0.000000 10.869115
LeftHandThumb1 -26.253704 0.000000 33.147579
Head -16.666239 0.373871 -10.474102
1076
root 3.422004 34.058041 -7.705248 23.881071 15.159469 10.638260
RightUpLeg -14.010620 -30.432155 -29.082969
RightLeg -7.973761 -0.000000 0.000000
RightFoot 0.237484 -28.897973 34.999134
RightToeBase 14.493462 -0.000000 -0.000000
LeftUpLeg -43.687594 -4.070231 9.973443
LeftLeg 15.467210 -0.000000 -0.000000
LeftFoot 0.785189 9.677596 -32.178990
LeftToeBase 10.382702 -0.000000 -0.000000
Spine 64.848168 6.830983 -18.187006
RightShoulder 15.245892 5.502650 -41.646164
RightArm 79.675605 -0.957057 35.817062
RightForeArm -21.227223 0.000000 30.982443
RightHand 10.318751 -0.000000 -16.005367
RightHandThumb1 -24.326973 -0.000000 -32.862282
LeftShoulder 5.903516 15.192929 30.420338
LeftArm 79.428404 -11.580051 -42.907875
LeftForeArm 53.081960 -0.000000 21.679231
LeftHand -14.362960 -0.000000 11.299197
LeftHandThumb1 -26.253704 0.000000 33.147579
Head -16.953355 0.267344 -9.981937
1077
root 3.370716 34.080944 -7.645157 23.350039 15.046956 10.499901
RightUpLeg -13.557184 -30.021951 -29.106797
RightLeg -7.975767 -0.000000 0.000000
RightFoot 0.125521 -28.867965 34.954352
RightToeBase 14.426644 -0.000000 -0.000000
LeftUpLeg -42.877160 -3.970487 10.074636
LeftLeg 15.065671 -0.000000 -0.000000
LeftFoot 0.872013 9.773350 -32.153378
LeftToeBase 10.357088 -0.000000 -0.000000
Spine 64.341292 6.745048 -18.218954
RightShoulder 15.321883 5.566071 -41.286648
RightArm 79.534785 -1.905136 36.298614
RightForeArm -21.113283 0.000000 31.129784
RightHand 10.417877 -0.000000 -16.182091
RightHandThumb1 -24.326973 -0.000000 -32.862282
LeftShoulder 5.763309 15.338472 30.293194
LeftArm 79.313319 -10.803848 -42.993237
LeftForeArm 53.149890 -0.000000 21.983295
LeftHand -14.373826 -0.000000 11.232179
LeftHandThumb1 -26.253704 0.000000 33.147579
Head -17.285458 0.138144 -9.571222
1078
root 3.336454 34.109645 -7.574622 22.734276 14.944626 10.458670
RightUpLeg -12.928377 -29.674153 -29.296538
RightLeg -8.017344 -0.000000 0.000000
RightFoot 0.156705 -28.772003 34.906469
RightToeBase 14.499808 -0.000000 -0.000000
LeftUpLeg -41.914391 -4.129018 10.177102
LeftLeg 14.591798 -0.000000 -0.000000
LeftFoot 0.848338 10.085949 -32.142999
LeftToeBase 10.418833 -0.000000 -0.000000
Spine 63.962637 6.698675 -18.191183
RightShoulder 15.391319 5.398897 -40.924572
RightArm 79.381100 -2.678842 36.594518
RightForeArm -20.882388 -0.000000 31.296915
RightHand 10.351604 -0.000000 -16.332419
RightHandThumb1 -24.326973 -0.000000 -32.862282
LeftShoulder 5.835028 15.787689 30.270834
LeftArm 79.411233 -10.347611 -43.175000
LeftForeArm 53.032323 -0.000000 22.278981
LeftHand -14.180107 -0.000000 11.420542
LeftHandThumb1 -26.253704 0.000000 33.147579
Head -17.512235 -0.089707 -9.112358
1079
root 3.293667 34.131662 -7.509264 22.174930 14.914646 10.365213
RightUpLeg -12.343013 -29.329665 -29.397274
RightLeg -8.035708 -0.000000 0.000000
RightFoot 0.064653 -28.719079 34.954463
RightToeBase 14.362306 -0.000000 -0.000000
LeftUpLeg -41.078482 -4.283462 10.349673
LeftLeg 14.180438 -0.000000 -0.000000
LeftFoot 0.839026 10.335782 -32.126536
LeftToeBase 10.392005 -0.000000 -0.000000
Spine 63.578666 6.443992 -18.191158
RightShoulder 15.420451 5.521670 -40.660446
RightArm 79.243793 -3.633337 37.070351
RightForeArm -20.543835 -0.000000 31.439472
RightHand 10.365845 -0.000000 -16.369549
RightHandThumb1 -24.326973 -0.000000 -32.862282
LeftShoulder 5.577592 16.040124 29.975704
LeftArm 79.429564 -9.674944 -43.097097
LeftForeArm 52.909997 -0.000000 22.561484
LeftHand -14.357384 -0.000000 11.653891
LeftHandThumb1 -26.253704 0.000000 33.147579
Head -18.035703 -0.306228 -8.857083
1080
root 3.247923 34.154597 -7.439705 21.572855 14.874063 10.223350
RightUpLeg -11.737891 -28.960603 -29.444365
RightLeg -8.082042 -0.000000 0.000000
RightFoot 0.042238 -28.691518 34.817617
RightToeBase 14.539596 -0.000000 -0.000000
LeftUpLeg -40.187446 -4.377325 10.541459
LeftLeg 13.741333 -0.000000 -0.000000
LeftFoot 0.865901 10.531278 -32.116909
LeftToeBase 10.354127 -0.000000 -0.000000
Spine 63.194788 6.256006 -18.073195
RightShoulder 15.467618 5.240288 -40.446067
RightArm 79.216977 -4.254657 37.374160
RightForeArm -19.986989 -0.000000 31.597524
RightHand 10.460697 -0.000000 -16.404334
RightHandThumb1 -24.326973 -0.000000 -32.862282
LeftShoulder 5.471251 16.654995 29.697787
LeftArm 79.696150 -9.357535 -43.013665
LeftForeArm 52.797032 -0.000000 22.787180
LeftHand -14.144622 -0.000000 11.656609
LeftHandThumb1 -26.253704 0.000000 33.147579
Head -18.402305 -0.538746 -8.575542
1081
root 3.197940 34.175187 -7.377792 21.085033 14.817071 10.095049
RightUpLeg -11.272780 -28.587581 -29.455330
RightLeg -8.095465 -0.000000 0.000000
RightFoot -0.066953 -28.693816 34.746054
RightToeBase 14.482074 -0.000000 -0.000000
LeftUpLeg -39.453653 -4.477471 10.746595
LeftLeg 13.372704 -0.000000 -0.000000
LeftFoot 0.870780 10.777257 -32.114786
LeftToeBase 10.331942 -0.000000 -0.000000
Spine 62.695523 6.100024 -17.988824
RightShoulder 15.467209 4.985478 -40.175928
RightArm 79.087826 -4.944107 37.824094
RightForeArm -19.481580 -0.000000 31.868807
RightHand 10.510305 -0.000000 -16.275383
RightHandThumb1 -24.326973 -0.000000 -32.862282
LeftShoulder 5.298931 16.974886 29.512414
LeftArm 79.871595 -8.729520 -42.999258
LeftForeArm 52.575207 -0.000000 23.022423
LeftHand -14.258103 -0.000000 11.587615
LeftHandThumb1 -26.253704 0.000000 33.147579
Head -18.830832 -0.681753 -8.106981
1082
root 3.150887 34.196905 -7.317186 20.627452 14.724311 9.962903
RightUpLeg -10.899999 -28.339934 -29.412095
RightLeg -8.079989 -0.000000 0.000000
RightFoot -0.081871 -28.578175 34.680243
RightToeBase 14.473034 -0.000000 -0.000000
LeftUpLeg -38.736438 -4.586774 10.968062
LeftLeg 12.991079 -0.000000 -0.000000
LeftFoot 0.851653 11.054883 -32.168177
LeftToeBase 10.370797 -0.000000 -0.000000
Spine 62.178315 5.987137 -17.908390
RightShoulder 15.418623 4.633494 -39.820120
RightArm 79.052111 -5.559425 38.050897
RightForeArm -18.943595 -0.000000 32.087795
RightHand 10.541843 -0.000000 -16.318447
RightHandThumb1 -24.326973 -0.000000 -32.862282
LeftShoulder 5.156952 16.470916 29.420652
LeftArm 79.458314 -7.469501 -43.108824
LeftForeArm 52.577876 -0.000000 23.304051
LeftHand -14.450227 -0.000000 11.685734
LeftHandThumb1 -26.253704 0.000000 33.147579
Head -19.343460 -0.876644 -7.609553
